<svg xmlns="http://www.w3.org/2000/svg" xmlns:xlink="http://www.w3.org/1999/xlink" width="405.779" height="102.205" viewBox="0 0 405.779 102.205">
  <defs>
    <linearGradient id="linear-gradient" x1="0.5" y1="0.021" x2="0.5" y2="1.207" gradientUnits="objectBoundingBox">
      <stop offset="0" stop-color="#24cd98"/>
      <stop offset="0.421" stop-color="#20b586"/>
      <stop offset="0.985" stop-color="#1e966e"/>
    </linearGradient>
    <linearGradient id="linear-gradient-2" x1="0" y1="0.5" x2="1" y2="0.5" xlink:href="#linear-gradient"/>
    <linearGradient id="linear-gradient-3" x1="0.5" y1="0.311" x2="0.5" y2="1.454" xlink:href="#linear-gradient"/>
    <linearGradient id="linear-gradient-4" x1="-41.029" y1="135.331" x2="-41.029" y2="136.518" xlink:href="#linear-gradient"/>
    <linearGradient id="linear-gradient-5" x1="-69.764" y1="172.229" x2="-68.764" y2="172.229" xlink:href="#linear-gradient"/>
    <linearGradient id="linear-gradient-6" x1="-38.919" y1="67.441" x2="-38.919" y2="68.584" xlink:href="#linear-gradient"/>
    <clipPath id="clip-Artboard_1">
      <rect width="405.779" height="102.205"/>
    </clipPath>
  </defs>
  <g id="Artboard_1" data-name="Artboard 1" clip-path="url(#clip-Artboard_1)">
    <rect width="405.779" height="102.205" fill="#fff"/>
    <path id="Path_1" data-name="Path 1" d="M46.437,75.264H25.3a12.807,12.807,0,0,1-12.81-12.81V50.1H33.627V62.454a12.79,12.79,0,0,0,2.19,7.161c.09.134.18.269.276.4a13.115,13.115,0,0,0,1.287,1.5c.141.141.289.282.436.416s.314.282.474.41c.141.122.288.237.435.346.18.134.359.269.545.391s.346.23.525.333c.314.2.647.378.98.544.4.192.8.365,1.217.519.1.039.2.077.314.109s.237.083.352.122c.154.044.308.089.468.128.256.07.512.134.775.179.134.032.282.058.422.077.09.019.18.032.269.045.154.025.3.045.455.057.09.013.173.02.263.026.154.013.314.026.467.032C45.995,75.258,46.213,75.264,46.437,75.264Z" fill="url(#linear-gradient)"/>
    <path id="Path_2" data-name="Path 2" d="M54.764,55.408V75.264H46.437c-.224,0-.442-.006-.66-.019-.153-.006-.313-.019-.467-.032-.09-.006-.173-.013-.263-.026-.153-.012-.3-.032-.455-.057-.089-.013-.179-.026-.269-.045-.14-.019-.288-.045-.422-.077-.263-.045-.519-.109-.775-.179-.16-.039-.314-.084-.468-.128-.115-.039-.237-.077-.352-.122s-.212-.07-.314-.109c-.416-.154-.82-.327-1.217-.519-.333-.166-.666-.346-.98-.544-.179-.1-.352-.218-.525-.333s-.365-.257-.545-.391c-.147-.109-.294-.224-.435-.346-.16-.128-.32-.269-.474-.41s-.3-.275-.436-.416a13.115,13.115,0,0,1-1.287-1.5c-.1-.128-.186-.263-.276-.4a12.621,12.621,0,0,1-.819-1.4h6.956A12.807,12.807,0,0,0,54.764,55.408Z" fill="url(#linear-gradient-2)"/>
    <path id="Path_3" data-name="Path 3" d="M88.391,101.205H67.574a12.807,12.807,0,0,1-12.81-12.81V50.1H75.9V88.183C75.9,97.042,77.822,99.924,88.391,101.205Z" fill="url(#linear-gradient-3)"/>
    <path id="Path_4" data-name="Path 4" d="M41.954,25.941H63.09A12.807,12.807,0,0,1,75.9,38.751V51.1H54.764V38.751a12.769,12.769,0,0,0-2.191-7.161c-.089-.134-.179-.269-.275-.4a13.024,13.024,0,0,0-1.288-1.5c-.141-.141-.288-.282-.435-.416s-.314-.282-.474-.41c-.141-.122-.288-.237-.436-.346-.179-.134-.358-.269-.544-.391s-.346-.23-.525-.333c-.314-.2-.647-.378-.98-.544-.4-.192-.8-.365-1.217-.519-.1-.039-.2-.077-.314-.109s-.237-.083-.352-.122c-.154-.044-.308-.089-.468-.128-.256-.07-.512-.134-.775-.179-.135-.032-.282-.058-.423-.077-.089-.019-.179-.032-.269-.045-.154-.025-.3-.045-.455-.057-.089-.013-.172-.02-.262-.026-.154-.013-.314-.026-.468-.032C42.4,25.947,42.178,25.941,41.954,25.941Z" fill="url(#linear-gradient-4)"/>
    <path id="Path_5" data-name="Path 5" d="M33.627,45.8V25.941h8.327c.224,0,.441.006.659.019.154.006.314.019.468.032.09.006.173.013.262.026.154.012.3.032.455.057.09.013.18.026.269.045.141.019.288.045.423.077.263.045.519.109.775.179.16.039.314.084.468.128.115.039.237.077.352.122s.211.07.314.109c.416.154.82.327,1.217.519.333.166.666.346.98.544.179.1.352.218.525.333s.365.257.544.391c.148.109.295.224.436.346.16.128.32.269.474.41s.294.275.435.416a13.024,13.024,0,0,1,1.288,1.5c.1.128.186.263.275.4a12.629,12.629,0,0,1,.82,1.4H46.437A12.807,12.807,0,0,0,33.627,45.8Z" fill="url(#linear-gradient-5)"/>
    <path id="Path_6" data-name="Path 6" d="M0,0H20.817a12.807,12.807,0,0,1,12.81,12.81V51.1H12.49V13.022C12.49,4.163,10.568,1.281,0,0Z" fill="url(#linear-gradient-6)"/>
    <path id="Path_7" data-name="Path 7" d="M104.527,30.251h3.645v4.362h-3.645Zm.1,10.266h3.49V66.336h-3.49Z"/>
    <path id="Path_8" data-name="Path 8" d="M116.538,40.517h3.439v3.849c0,1.13-.1,2.054-.1,2.054h.1a10.992,10.992,0,0,1,10.318-6.52c6.364,0,8.623,3.645,8.623,10.01V66.336h-3.491v-15.5c0-4.055-.616-7.648-5.594-7.648a9.814,9.814,0,0,0-9.394,7.289,12.761,12.761,0,0,0-.411,3.49V66.336h-3.49Z"/>
    <path id="Path_9" data-name="Path 9" d="M146.771,60.69a11.077,11.077,0,0,0,7.7,3.13c2.772,0,5.185-1.385,5.185-4.106,0-5.646-13.911-4.26-13.911-12.679,0-4.619,4.158-7.135,8.829-7.135,5.441,0,7.956,2.824,7.956,2.824l-1.591,2.669a9.158,9.158,0,0,0-6.468-2.361c-2.618,0-5.132,1.129-5.132,4,0,5.7,13.91,4.158,13.91,12.679,0,4.21-3.645,7.238-8.829,7.238a13.153,13.153,0,0,1-9.547-3.747Z"/>
    <path id="Path_10" data-name="Path 10" d="M170.69,43.75H167.3V40.824h3.44V33.382h3.438v7.442h6.468V43.75H174.18V56.583c0,6.058,3.85,6.827,5.8,6.827a6.033,6.033,0,0,0,1.181-.1v3.131a9.254,9.254,0,0,1-1.489.1c-2.977,0-8.983-.975-8.983-9.6Z"/>
    <path id="Path_11" data-name="Path 11" d="M186.91,40.517h3.439v4.568c0,1.13-.1,2.054-.1,2.054h.1c1.233-3.9,4.107-6.879,8.161-6.879a7,7,0,0,1,1.387.154v3.44a8.724,8.724,0,0,0-1.283-.1c-3.645,0-6.365,2.875-7.495,6.674a17.038,17.038,0,0,0-.718,5.03V66.336H186.91Z"/>
    <path id="Path_12" data-name="Path 12" d="M204.823,40.517h3.491v15.5c0,4.054.615,7.648,5.6,7.648,5.9,0,9.548-5.185,9.548-10.779V40.517h3.49V66.336h-3.388v-3.85c0-1.129.1-2.053.1-2.053h-.1a11.037,11.037,0,0,1-10.112,6.519c-6.057,0-8.624-3.285-8.624-10.01Z"/>
    <path id="Path_13" data-name="Path 13" d="M247.12,39.9a12.707,12.707,0,0,1,9.444,3.7l-1.8,2.618a10.93,10.93,0,0,0-7.545-3.132c-5.646,0-10.06,4.209-10.06,10.369A10.012,10.012,0,0,0,247.325,63.82a11.376,11.376,0,0,0,8.264-3.644L257.18,62.9a13.783,13.783,0,0,1-10.06,4.055c-7.649,0-13.552-5.492-13.552-13.5A13.194,13.194,0,0,1,247.12,39.9Z"/>
    <path id="Path_14" data-name="Path 14" d="M264.52,43.75h-3.387V40.824h3.439V33.382h3.438v7.442h6.468V43.75H268.01V56.583c0,6.058,3.85,6.827,5.8,6.827a6.033,6.033,0,0,0,1.181-.1v3.131a9.254,9.254,0,0,1-1.489.1c-2.977,0-8.983-.975-8.983-9.6Z"/>
    <path id="Path_15" data-name="Path 15" d="M292.495,39.9a13.527,13.527,0,1,1-13.654,13.4A13.367,13.367,0,0,1,292.495,39.9Zm0,23.92A10.185,10.185,0,0,0,302.555,53.3a10.062,10.062,0,1,0-20.121,0A10.185,10.185,0,0,0,292.495,63.82Z"/>
    <path id="Path_16" data-name="Path 16" d="M312.667,40.517h3.439v4.568c0,1.13-.1,2.054-.1,2.054h.1c1.233-3.9,4.107-6.879,8.161-6.879a7,7,0,0,1,1.387.154v3.44a8.724,8.724,0,0,0-1.283-.1c-3.645,0-6.365,2.875-7.495,6.674a17.038,17.038,0,0,0-.718,5.03V66.336h-3.491Z"/>
    <path id="Path_17" data-name="Path 17" d="M331.35,29.892h6.622v15.45h16.683V29.892h6.621V66.336h-6.621v-15.3H337.972v15.3H331.35Z" fill="#24cd98"/>
    <path id="Path_18" data-name="Path 18" d="M386.787,29.275a18.435,18.435,0,0,1,18.889,18.633,19.064,19.064,0,0,1-4,11.55l4.106,3.695-3.8,4.209-4.055-4a18.181,18.181,0,0,1-11.138,3.594A18.661,18.661,0,0,1,368,47.908,18.411,18.411,0,0,1,386.787,29.275Zm0,31.62a11.877,11.877,0,0,0,6.364-1.9l-4.055-3.85,3.8-4.158,3.952,3.953a13.55,13.55,0,0,0,2-7.033c0-7.237-5.287-12.576-12.062-12.576-6.673,0-11.96,5.339-11.96,12.576C374.827,55.352,380.114,60.9,386.787,60.9Z" fill="#24cd98"/>
  </g>
</svg>