<svg xmlns="http://www.w3.org/2000/svg" viewBox="0 0 487.37 355.41"><defs><style>.cls-1{fill:#264de4;}.cls-2{fill:#2965f1;}.cls-3{fill:#ebebeb;}.cls-4{fill:#fff;}.cls-5{fill:#e44d26;}.cls-6{fill:#f16529;}.cls-7{fill:#101010;opacity:0.85;isolation:isolate;}.cls-8{fill:#131313;}.cls-9{fill:#d6ba32;}.cls-10{fill:#ffda3e;}.cls-11{font-size:23.37px;}.cls-11,.cls-13{font-family:LucidaHandwriting-Italic, Lucida Handwriting;font-style:italic;}.cls-12{letter-spacing:2.46em;}.cls-13{font-size:15.44px;}</style></defs><title>poster</title><g id="Layer_2" data-name="Layer 2"><g id="Layer_1-2" data-name="Layer 1"><g id="layer1"><g id="g3013"><polygon id="polygon2989" class="cls-1" points="315.19 94.81 305.67 201.36 262.92 213.21 220.29 201.37 210.79 94.81 315.19 94.81"/><polygon id="polygon2991" class="cls-2" points="297.53 194.57 305.66 103.52 262.99 103.52 262.99 204.15 297.53 194.57"/><polygon id="polygon2993" class="cls-3" points="232.57 143.04 233.74 156.11 262.99 156.11 262.99 143.04 232.57 143.04"/><polygon id="polygon2995" class="cls-3" points="262.99 116.59 262.94 116.59 230.21 116.59 231.4 129.66 262.99 129.66 262.99 116.59"/><polygon id="polygon2997" class="cls-3" points="262.99 190.59 262.99 176.99 262.93 177 248.37 173.07 247.44 162.65 240.37 162.65 234.32 162.65 236.15 183.17 262.93 190.6 262.99 190.59"/><path id="path2999" d="M235.36,65.85h15.82v6.62H242v6.62h9.2v6.62H235.36Z"/><path id="path3001" d="M254.35,65.85h15.83v5.76H261v1.15h9.21V86H254.35V80h9.21V78.8h-9.21Z"/><path id="path3003" d="M273.35,65.85h15.83v5.76H280v1.15h9.21V86H273.35V80h9.21V78.8h-9.21Z"/><polygon id="polygon3005" class="cls-4" points="279.03 156.11 277.52 173.06 262.94 177 262.94 190.6 289.73 183.17 289.93 180.96 293 146.55 293.32 143.04 295.68 116.59 262.94 116.59 262.94 129.66 281.36 129.66 280.17 143.04 262.94 143.04 262.94 156.11 279.03 156.11"/></g></g><path d="M76.53,65.56h6.62v6.56h6.11V65.56h6.62V85.42H89.26V78.8H83.21v6.62H76.53m28.09-13.24H98.78V65.56h18.34v6.62h-5.88V85.42h-6.62M120,65.56H127l4.26,7,4.26-7h6.93V85.42h-6.62V75.58l-4.63,7.14-4.63-7.14v9.84H120M145.7,65.56h6.61v13.3h9.39v6.56h-16"/><path class="cls-5" d="M76.3,201.12,66.81,94.52H171.22l-9.49,106.54-42.8,11.86"/><path class="cls-6" d="M119,203.85V103.26H161.7l-8.15,91"/><path class="cls-3" d="M86.2,116.3H119v13.07H100.54l1.21,13.38H119v13H89.77m.58,6.56h13.12l.92,10.45L119,176.71v13.65l-26.83-7.49"/><path class="cls-4" d="M151.71,116.3H119v13.07H150.5m-1.18,13.38H119v13.07h16.11l-1.52,17L119,176.71V190.3l26.76-7.43"/><g id="layer1-2" data-name="layer1"><g id="g8487"><g id="g3652"><path id="path3654" class="cls-7" d="M453.44,65.91c1.64,0,3.28,0,4.93-.06l.08,3.63h-5C453.42,68.58,453.44,66.81,453.44,65.91Z"/></g><path id="path3664" class="cls-8" d="M353.74,66.65c3,0,6,0,9,0-.25,5.37.8,11-.72,16.18-2,3.75-6.84,3-10.35,3.09-.14-1.19-.28-2.38-.41-3.57,2-.17,4.21.23,6.07-.81,1.2-3.72.66-7.7.36-11.53-1,0-3.07,0-4.1.06,0-.86.08-2.6.12-3.47Z"/><path id="path3666" class="cls-8" d="M413.83,68.12c3.54-2.73,8.18-1.61,12.12-.54,0,1,0,3.11,0,4.15-3-1.22-8.83-3.9-9.6,1.14,2.88.88,5.93,1.39,8.54,3,2.78,2.26,2,7.41-1.2,9-3.64,2.16-8,1-11.8.2-.22-1.6-.44-3.19-.64-4.79,3.23,1.43,9.78,4.8,10.75-.65-3.25-1.22-7.29-1.4-9.64-4.2-1-2.38-.87-5.7,1.5-7.23Z"/><path id="path3668" class="cls-8" d="M478.36,67.32h4.13c0,1.32.08,2.64.14,4l4.23,0c0,.81.06,2.41.08,3.2-1.08,0-3.22,0-4.3-.06.06,2.67-.63,5.59.72,8.06l4,.4c-.1,4.92-5.71,2.69-8.67,1.92q-.4-4.5-.4-9c-.76-1.06-1.51-2.14-2.26-3.2.57-.53,1.71-1.58,2.29-2.1,0-.81,0-2.42,0-3.21Z"/><path id="path3670" class="cls-8" d="M366.41,71.43c3.81-.2,9.13-1.61,11.52,2.32.85,3.9.32,8,.45,11.92l-5.1-.47c-1.94.16-4.22,1.6-6,.31-3-1.42-3-6.67.1-7.94,2.27-.94,4.74-1.1,7.11-1.66-2.25-2.33-5.45-1.45-8.29-1.14.06-.84.17-2.51.21-3.34m3.71,8c-.12,1.13-.24,2.26-.35,3.4l3.9-.19c.1-1.23.2-2.46.31-3.68Z"/><path id="path3672" class="cls-8" d="M380.12,71l4.49.89c1.18,2.7,2,5.55,3.13,8.28.95-2.92,1.84-5.87,2.7-8.82l4.5-.08c-1.59,5-3.36,9.95-5.35,14.83a28.72,28.72,0,0,1-4.53-1A100.3,100.3,0,0,1,380.12,71Z"/><path id="path3674" class="cls-8" d="M396.38,74.74c.33-1.11.7-2.22,1.11-3.3,3.62-.53,8.52-1.3,11,2.09.85,4,.33,8.21.41,12.31l-5.13-.7c-3,1.62-8.15,1-8.08-3.27-.59-5.11,5.8-5.18,9.26-5.86-2.09-2.8-5.7-1.31-8.58-1.27m4.23,4.81c-.13,1-.25,2.11-.36,3.16l3.86.1c.12-1.3.23-2.58.35-3.88l-3.85.62Z"/><path id="path3676" class="cls-8" d="M427.6,78.56c-.36-6.35,7.72-9.68,12.55-6.29.12.9.34,2.71.44,3.6-2.21-.7-4.49-2.28-6.87-1.21-2.52,2.4-2,8.51,2.28,8.15l4.7-1.5c-.21,1-.62,3-.82,4-5.05,2.38-12.67-.44-12.28-6.76Z"/><path id="path3678" class="cls-8" d="M442.53,71c1.75.47,3.54.94,5.3,1.44l4-1.43c.06,1.12.2,3.37.27,4.49l-5,.24c-.12,3.35-.15,6.69-.17,10l-4.4,0c-.06-4.93-.07-9.87,0-14.81Z"/><path id="path3680" class="cls-8" d="M461.51,71.29a23.18,23.18,0,0,0,9.67-.14c5,1,5.15,8.17,3.24,11.9-1.59,3.22-5.48,2.92-8.48,2.76,0,1.7.05,3.39.07,5.1l-4.51-.06c0-6.51,0-13,0-19.56m4.55,3.43c-.05,2.72-.07,5.45-.05,8.17,1.45-.4,3.32-.12,4.41-1.37.82-2.21.18-4.61,0-6.89l-4.38.09Z"/><g id="g3688"><path id="path3690" class="cls-8" d="M453.86,71.32H458q.11,7.23,0,14.45h-4.15Q453.74,78.55,453.86,71.32Z"/></g><g id="g3768"><path id="path3770" class="cls-9" d="M367.27,95.14c11.63-.49,23.29.14,34.94-.06,12.85-.4,25.69-.07,38.55,0,10.2,0,20.4,0,30.6,0-3.21,35.39-6.44,70.79-9.42,106.21-13.67,3.89-27.35,7.72-41,11.58-1.75.72-3.55.05-5.23-.41q-19.49-5.59-39-11-5.08-53.12-9.44-106.31m52.26,9.23c-.48,17.46-.07,34.92-.21,52.38.13,16-.24,31.95.18,47.91,11.49-2.71,22.82-6,34.15-9.31,2.85-30.31,5.63-60.62,8-91-14-.14-28.09,0-42.13,0m-14.61,68.19c-6.75-1.85-13.41-4-20.25-5.43a73.72,73.72,0,0,0,.34,12.16c10,2.44,19.81,5.65,29.84,8,.07-23.12,0-46.25,0-69.37-3.26-.08-6.53-.13-9.8-.2-.37,18.25,0,36.53-.17,54.8Z"/></g><g id="g3796"><path id="path3798" class="cls-10" d="M419.53,104.37c14,0,28.09-.12,42.13,0-2.38,30.34-5.16,60.65-8,91-11.33,3.28-22.66,6.6-34.15,9.31-.42-16-.05-31.94-.18-47.91.14-17.46-.27-34.92.21-52.38M423.46,118q.07,22.54,0,45.11c6.86-1.11,13.7-2.39,20.54-3.63-.1,3.5-.24,7-.4,10.5-6.66,1.77-13.31,3.61-20,5.25-.11,4-.12,8.08-.08,12.13,8.44-1.89,16.75-4.27,25.12-6.39,1.06-.49,3.07-.43,3-2.07,1-10.81,1.65-21.66,2.63-32.5-6.95.58-13.82,1.74-20.77,2.22-.05-6.14-.07-12.28,0-18.41h21.9c.47-4.1.88-8.21,1.19-12.32-11,.05-22.09-.1-33.13.1Z"/></g><path id="path3806" class="cls-3" d="M404.92,172.56c.15-18.27-.2-36.55.17-54.8,3.27.07,6.54.12,9.8.2-.08,23.12,0,46.25,0,69.37-10-2.39-19.83-5.6-29.84-8a73.72,73.72,0,0,1-.34-12.16C391.51,168.59,398.17,170.71,404.92,172.56Z"/></g></g><text class="cls-11" transform="translate(0 20.34)">FRONT END <tspan class="cls-12" x="0" y="28.04">	</tspan><tspan x="65.4" y="28.04">WEB DEVELOPER</tspan></text><g id="layer1-3" data-name="layer1"><path d="M178.12,242a9.26,9.26,0,0,0-8.81,8.4c-.05.52-.09,6.63-.09,15.58v14.75h-2.31a22.22,22.22,0,0,0-6,.66,25.15,25.15,0,0,0-18.07,16.78,31,31,0,0,0-1,4.09,38.27,38.27,0,0,0,0,7.18,25.91,25.91,0,0,0,2.61,8.1,27.23,27.23,0,0,0,2.59,4c.31.39.63.78.7.88s0,.26-1.13,1.43l-1.24,1.25-.41-.4a3.57,3.57,0,0,0-.6-.49,1.51,1.51,0,0,0-1,0c-.25.09-25.09,24.82-25.69,25.56a1.15,1.15,0,0,0-.35.83,1.7,1.7,0,0,0,.13.65c.16.29,3.79,3.91,4.07,4.05a1.6,1.6,0,0,0,1.2,0c.43-.29,25.62-25.52,25.75-25.81a1.39,1.39,0,0,0-.44-1.73,1.22,1.22,0,0,1-.32-.41,13.06,13.06,0,0,1,1.2-1.29c1.13-1.13,1.22-1.2,1.39-1.08l.88.7a25.16,25.16,0,0,0,10.46,4.9,23.86,23.86,0,0,0,5.53.49l2.07,0,0,2c.09,3,.4,4.15,1.62,6.07a11.51,11.51,0,0,0,2.44,2.49,11.89,11.89,0,0,0,3,1.34l.9.25H249c58.64,0,71.94,0,72.41-.11a9.21,9.21,0,0,0,7.51-7.8c0-.34.07-19.63.07-42.88,0-32.75,0-42.36-.11-42.79A9.27,9.27,0,0,0,321,242.1c-.78-.12-10.63-.12-71.7-.12C210.38,242,178.35,242,178.12,242Zm143.38,5.61a3.86,3.86,0,0,1,2.12,2.5c.11.35.13,6.73.13,42.45,0,40.36,0,42.05-.16,42.52a3.81,3.81,0,0,1-2.71,2.63c-.45.13-6.48.14-71.74.14s-71.3,0-71.75-.14a3.88,3.88,0,0,1-2.41-1.95c-.39-.77-.46-1.43-.44-3.83,0-1.68.05-2,.17-2.09s.64-.27,1.26-.52a25.15,25.15,0,0,0,14.95-30.65,25.44,25.44,0,0,0-15.32-16.4l-1-.38,0-15.42c0-9.86,0-15.62.07-16a3.87,3.87,0,0,1,2.82-3.1c.4-.11,10.55-.12,71.93-.11l71.47,0ZM168.89,287.33l.33.06V305.9c0,17.54,0,18.51-.15,18.57a23,23,0,0,1-2.32.06,16,16,0,0,1-3.06-.17,18.73,18.73,0,0,1-11.84-29.7,25.85,25.85,0,0,1,3.3-3.39,18.84,18.84,0,0,1,10.34-4A31.81,31.81,0,0,1,168.89,287.33Zm6.53,2c.39.2,1.19.68,1.78,1.07a18.82,18.82,0,0,1,8.09,12.86,23.75,23.75,0,0,1,0,5.33,20.53,20.53,0,0,1-1.78,5.66,19.82,19.82,0,0,1-6.24,7.1,20.33,20.33,0,0,1-2.68,1.51s-.06-7.62-.06-16.94c0-11.48,0-16.95.09-16.95A5.32,5.32,0,0,1,175.42,289.34Z"/><path d="M191.31,270.58c.57.46.56.45.5.24s-.19-.24-.36-.31C191,270.33,191,270.34,191.31,270.58Z"/><path d="M283.34,271.51c-.19,0-.7.11-1.12.2s-1.35.29-2.07.43a16.94,16.94,0,0,0-1.88.44,3.42,3.42,0,0,1-.74.22,2.84,2.84,0,0,0-.7.22l-1.1.45a19.94,19.94,0,0,0-9.24,8,1.92,1.92,0,0,1-.26.4,26.06,26.06,0,0,0-1.9,4.32,12.76,12.76,0,0,0-.63,2.44,6.31,6.31,0,0,1-.23,1,7.58,7.58,0,0,0-.22,1.51c0,.62-.12,1.59-.17,2.16a24.46,24.46,0,0,0,.17,5.75,10.52,10.52,0,0,1,.18,1.3c.06.54.15,1.12.19,1.28s.16.65.26,1.08a10.74,10.74,0,0,0,.68,2.4,2.91,2.91,0,0,1,.22.54,22.82,22.82,0,0,0,1.82,3.83l.8,1.11a23.72,23.72,0,0,0,2.59,3,20.71,20.71,0,0,0,2.38,1.85,18.23,18.23,0,0,0,1.67,1l.81.41a7.37,7.37,0,0,0,1.17.51l.9.36a21,21,0,0,0,2.6.75,5.22,5.22,0,0,1,.86.25,32.65,32.65,0,0,0,5.88.52,29.11,29.11,0,0,0,11-1.78l1.48-.65a4.18,4.18,0,0,0,.81-.4,5.62,5.62,0,0,1,.63-.36,6.37,6.37,0,0,0,.76-.45,26.13,26.13,0,0,0,2.78-2.2,24,24,0,0,0,2.53-2.87,5.09,5.09,0,0,1,.47-.64,11.57,11.57,0,0,0,1.22-2.2,15.49,15.49,0,0,0,1.13-2.65c.11-.37.26-.81.33-1a17.34,17.34,0,0,0,.58-2.6,3.79,3.79,0,0,1,.16-.7,13.47,13.47,0,0,0,.28-2.77c.06-1.24.12-2.36.14-2.5a51.27,51.27,0,0,0-.58-6.21c-.06-.18-.16-.63-.23-1a15.18,15.18,0,0,0-.57-2.21,7.23,7.23,0,0,1-.34-.92,14.46,14.46,0,0,0-1.22-2.72,16.2,16.2,0,0,0-1.77-2.8,27.27,27.27,0,0,0-3.87-3.88,24.17,24.17,0,0,0-2.93-1.78c-.62-.32-1.5-.72-2-.9s-.94-.34-1-.39a5.62,5.62,0,0,0-.79-.23,27.8,27.8,0,0,0-8.68-1Zm5.26,8.29a9.2,9.2,0,0,1,4.45,1.66,15.4,15.4,0,0,1,2.4,2.31,14.6,14.6,0,0,1,1.31,2.24c.12.27.31.68.43.9s.3.79.44,1.26l.37,1.33a8.09,8.09,0,0,1,.23,1.35c0,.48.17,1.33.27,1.89a24.12,24.12,0,0,1,0,5.37c-.07.44-.15,1.13-.18,1.52a18.54,18.54,0,0,1-1.07,4.22,11.26,11.26,0,0,1-4.84,5.91,12.18,12.18,0,0,1-3.31,1.15,10.9,10.9,0,0,1-4.72,0,10.1,10.1,0,0,1-6.43-4.12,11.24,11.24,0,0,1-1.25-2.23,4,4,0,0,0-.26-.56,7.86,7.86,0,0,1-.41-1.1c-.13-.45-.32-1.08-.42-1.41a8.54,8.54,0,0,1-.26-1.3c-.05-.39-.16-1-.24-1.43a35.64,35.64,0,0,1,0-6.85,5.52,5.52,0,0,0,.16-1,13,13,0,0,1,.55-2.62,12.5,12.5,0,0,1,3.22-5.62,9.43,9.43,0,0,1,2.49-1.82,11.46,11.46,0,0,1,2.65-.89,5.5,5.5,0,0,0,.89-.12A13.27,13.27,0,0,1,288.6,279.8Z"/><path d="M208.37,272.54a8.21,8.21,0,0,0-2.38.21,6.31,6.31,0,0,1-1,.24,9.86,9.86,0,0,0-1.13.22c-1.15.34-2.57.8-2.74.9a6,6,0,0,1-.76.35,5.84,5.84,0,0,0-.8.4l-1,.67a11.81,11.81,0,0,0-4.31,5.23c-.11.29-.25.66-.32.81a5.79,5.79,0,0,0-.18.63c0,.2-.14.63-.23,1a21.62,21.62,0,0,0-.26,4.74,13.23,13.23,0,0,0,.4,2.64c.07.2.23.7.36,1.13a10.81,10.81,0,0,0,2.43,3.84c.09.09.39.35.67.58a15.43,15.43,0,0,0,3.87,2.31,6.74,6.74,0,0,1,.77.32,2,2,0,0,0,.54.21c.2.05.65.18,1,.29,1.36.42,5.35,1.35,6.74,1.57.2,0,.62.13.94.22s1,.25,1.58.36a7.66,7.66,0,0,1,1.34.36,4.81,4.81,0,0,0,.81.27,8.1,8.1,0,0,1,2.45,1.2,4.8,4.8,0,0,1,1.25,1.81,3.42,3.42,0,0,1,.26,1.71,3.51,3.51,0,0,1-.26,1.72,5.7,5.7,0,0,1-4.28,3.26l-1.21.25a28.47,28.47,0,0,1-7.56-.2c-.34-.06-.8-.15-1-.18s-.66-.14-1-.23-.94-.26-1.39-.36a7.2,7.2,0,0,1-1.23-.42,2.54,2.54,0,0,0-.55-.2,8.76,8.76,0,0,1-1.64-.54,4.24,4.24,0,0,0-.68-.28,17.34,17.34,0,0,1-2.57-1.12A3.8,3.8,0,0,0,194,308c-.14.06-.15.21-.1,2.15,0,1.15.06,3.19.06,4.53,0,2.82,0,2.7.9,3,.27.07.64.2.81.26s.48.17.68.23.66.17,1,.28l1.21.31c.3.07.8.21,1.13.31s.84.22,1.16.27.75.13.95.18a4.27,4.27,0,0,0,.67.09,4,4,0,0,1,1,.22,3.63,3.63,0,0,0,1.32.22,18,18,0,0,1,1.8.15,36.43,36.43,0,0,0,5.1.1c3.57-.05,4.08-.07,4.72-.23a10.71,10.71,0,0,1,1.26-.23,8.16,8.16,0,0,0,1-.21c.27-.08.72-.2,1-.26a16.83,16.83,0,0,0,4.81-2.15,13.38,13.38,0,0,0,2.91-2.91,11.7,11.7,0,0,0,1.72-3.88,2,2,0,0,1,.21-.62,4.57,4.57,0,0,0,.33-.84c.14-.51.24-.6.35-.3.05.12.12,2.49.15,5.27.06,4.05.09,5.07.19,5.17s.66.12,2.93.08l9.28-.12,9-.14,6.84-.1c2.35,0,4.33-.09,4.39-.12s.09-.93,0-4.17c-.05-2.26-.13-4.15-.16-4.2s-2.23-.08-9.16.05c-1.23,0-4.31.07-6.83.1-4.58.05-4.59.05-4.83-.13a.89.89,0,0,1-.29-.54c0-.18-.05-2.54-.07-5.25l0-4.91.21-.21.21-.21,6.44-.07c3.54,0,7.76-.1,9.37-.13l2.92-.07,0-4.12a27.87,27.87,0,0,0-.09-4.25c-.09-.12-.35-.13-1.6-.08-.82,0-3.87.07-6.79.09l-7.73.1c-2.52.06-2.82,0-3-.3s-.18-1.71-.2-5.41l0-3.09.24-.21c.23-.19.33-.21,1.34-.21l2.94,0c1,0,5-.09,8.77-.14,5.59-.07,6.94-.12,7-.22s.1-.83.05-4.22c-.05-3.64-.08-4.12-.21-4.17s-1.42-.05-3,0-6.62.11-11.24.16c-16.88.21-17.33.23-17.47.37s-.12.82-.06,5.12c.08,5.34.29,20.55.3,22.12s-.17,2.06-.4,1.23a1.54,1.54,0,0,0-.26-.56,4,4,0,0,1-.44-1,10.06,10.06,0,0,0-5.45-5.82c-.54-.28-1.26-.61-1.61-.75a4.17,4.17,0,0,1-.75-.32,2.31,2.31,0,0,0-.6-.23l-1-.24a4.21,4.21,0,0,1-.74-.25,3.39,3.39,0,0,0-.86-.24c-1.2-.2-2.09-.37-2.54-.5a7.54,7.54,0,0,0-1-.19,8.51,8.51,0,0,1-1-.18c-.27-.06-.67-.14-.9-.17-.72-.1-3.42-.68-4.45-1a14.51,14.51,0,0,1-2.16-.84,4.56,4.56,0,0,1-1.7-1.58,5.42,5.42,0,0,1-.35-1.18,4.3,4.3,0,0,1,0-1.56,3.54,3.54,0,0,1,.76-2,6.88,6.88,0,0,1,4.68-2.16c2.89-.35,3.7-.38,5-.16a11.62,11.62,0,0,0,1.44.13,8.5,8.5,0,0,1,1.17.1c.3,0,.89.14,1.31.22a5,5,0,0,1,1,.21,4.09,4.09,0,0,0,.84.23,30.37,30.37,0,0,1,3.8,1.09l1.08.4c.25.09.69.26,1,.38.5.22.53.23.61.08s.07-1.81,0-4.54c0-3.82-.07-4.41-.2-4.56s-.33-.2-.79-.25a3.5,3.5,0,0,1-.74-.15,4,4,0,0,0-.73-.14,3.23,3.23,0,0,1-.86-.21,3.08,3.08,0,0,0-.8-.18c-.29,0-.88-.11-1.3-.19A56.09,56.09,0,0,0,208.37,272.54Z"/><path d="M160.94,344.72c-.08,0-.09.3-.05.87a9.71,9.71,0,0,0,6.6,8.85l.7.21h162l.76-.26a8.55,8.55,0,0,0,3.43-2.05,10.42,10.42,0,0,0,2.74-5,7.92,7.92,0,0,0,.25-2.66C337.05,344.65,161,344.67,160.94,344.72Zm101.85,2.21a.61.61,0,0,1,.28.62c0,.33,0,.42-.26.57l-.26.19H235.68l-.24-.23a.73.73,0,0,1,0-1.11l.26-.28h26.78Z"/></g><text class="cls-13" transform="translate(336.87 279.91)">SEARCH<tspan x="0" y="18.52">ENGINE </tspan><tspan x="0" y="37.05">OPTIMISATION</tspan></text></g></g></svg>