<svg xmlns="http://www.w3.org/2000/svg" viewBox="0 0 620.11 414.89"><defs><style>.cls-1{fill:#264de4;}.cls-2{fill:#2965f1;}.cls-3{fill:#ebebeb;}.cls-4{fill:#fff;}.cls-5{fill:#e44d26;}.cls-6{fill:#f16529;}.cls-7{fill:#101010;opacity:0.85;}.cls-11,.cls-12,.cls-13,.cls-7{isolation:isolate;}.cls-8{fill:#131313;}.cls-9{fill:#d6ba32;}.cls-10{fill:#ffda3e;}.cls-12{font-size:27.43px;}.cls-12,.cls-13{font-family:CourierNewPSMT, Courier New;}.cls-13{font-size:18.12px;}</style></defs><title>poster</title><g id="Layer_2" data-name="Layer 2"><g id="Layer_1-2" data-name="Layer 1"><g id="layer1"><g id="g3013"><polygon id="polygon2989" class="cls-1" points="401.05 108.97 388.93 234.04 334.54 247.96 280.3 234.06 268.21 108.97 401.05 108.97"/><polygon id="polygon2991" class="cls-2" points="378.58 226.07 388.92 119.19 334.63 119.19 334.63 237.32 378.58 226.07"/><polygon id="polygon2993" class="cls-3" points="295.92 165.59 297.41 180.93 334.63 180.93 334.63 165.59 295.92 165.59"/><polygon id="polygon2995" class="cls-3" points="334.63 134.54 334.56 134.54 292.92 134.54 294.43 149.88 334.63 149.88 334.63 134.54"/><polygon id="polygon2997" class="cls-3" points="334.63 221.4 334.63 205.44 334.55 205.45 316.02 200.84 314.84 188.6 305.85 188.6 298.15 188.6 300.48 212.69 334.55 221.41 334.63 221.4"/><path id="path2999" d="M299.47,75H319.6v7.77H307.92v7.77h11.71v7.77H299.47Z"></path><path id="path3001" d="M323.63,75h20.15v6.76H332.1v1.35h11.71V98.63H323.63v-7h11.72V90.18H323.63Z"></path><path id="path3003" d="M347.81,75H368v6.76H356.27v1.35H368V98.63H347.81v-7h11.72V90.18H347.81Z"></path><polygon id="polygon3005" class="cls-4" points="355.04 180.93 353.12 200.82 334.56 205.45 334.56 221.41 368.65 212.69 368.91 210.1 372.81 169.71 373.22 165.59 376.22 134.54 334.56 134.54 334.56 149.88 358 149.88 356.49 165.59 334.56 165.59 334.56 180.93 355.04 180.93"/></g></g><path d="M97.38,74.64h8.42v7.7h7.77v-7.7H122V98h-8.43V90.18h-7.69V98h-8.5m35.74-15.54h-7.43V74.64H149v7.77h-7.48V98h-8.42m19.57-23.31h8.9L167,82.85l5.42-8.21h8.81V98h-8.42V86.4l-5.89,8.38-5.89-8.38V98h-8.36m32.7-23.31h8.41V90.25h11.95V98H185.39"></path><path class="cls-5" d="M97.08,233.76,85,108.63H217.86L205.79,233.69l-54.46,13.92"></path><path class="cls-6" d="M151.42,237V118.89h54.33L195.38,225.71"></path><path class="cls-3" d="M109.68,134.2h41.74v15.34H127.93l1.54,15.71h21.95v15.26h-37.2m.74,7.7h16.7l1.17,12.26,18.59,4.64v16l-34.14-8.79"></path><path class="cls-4" d="M193,134.2H151.42v15.34H191.5M190,165.25H151.42v15.34h20.49L170,200.54l-18.56,4.57v15.95l34-8.72"></path><g id="layer1-2"><g id="g8487"><g id="g3652"><path id="path3654" class="cls-7" d="M577,75.05c2.09,0,4.18,0,6.28-.07l.1,4.26H577C576.93,78.18,577,76.1,577,75.05Z"></path></g><path id="path3664" class="cls-8" d="M450.1,75.91h11.45c-.32,6.31,1,12.92-.92,19-2.54,4.4-8.7,3.52-13.17,3.62-.17-1.39-.35-2.79-.52-4.19,2.55-.2,5.36.27,7.73-1,1.52-4.36.83-9,.45-13.53-1.27,0-3.9,0-5.21.07,0-1,.1-3.05.15-4.07Z"></path><path id="path3666" class="cls-8" d="M526.56,77.64c4.5-3.2,10.4-1.89,15.42-.63v4.87c-3.82-1.43-11.24-4.58-12.22,1.34,3.67,1,7.55,1.63,10.87,3.52,3.54,2.65,2.54,8.7-1.53,10.56-4.63,2.54-10.18,1.18-15,.24-.28-1.88-.56-3.75-.82-5.63,4.11,1.68,12.45,5.64,13.68-.76-4.13-1.43-9.27-1.64-12.27-4.93-1.27-2.79-1.1-6.69,1.91-8.49Z"></path><path id="path3668" class="cls-8" d="M608.66,76.7h5.26c0,1.55.1,3.1.18,4.7h5.38c0,.95.07,2.83.1,3.75-1.37,0-4.1,0-5.47-.07.08,3.14-.8,6.56.91,9.46l5.09.47c-.12,5.78-7.26,3.16-11,2.26-.34-3.52-.51-7-.51-10.57-1-1.24-1.92-2.51-2.87-3.75.72-.63,2.17-1.86,2.91-2.47V76.71Z"></path><path id="path3670" class="cls-8" d="M466.22,81.53c4.85-.24,11.62-1.89,14.66,2.72,1.08,4.58.4,9.39.57,14L475,97.69c-2.47.19-5.37,1.88-7.63.36-3.82-1.66-3.82-7.83.12-9.32,2.89-1.1,6-1.29,9.05-2-2.86-2.73-6.94-1.7-10.55-1.33.08-1,.22-3,.27-3.92m4.72,9.39c-.15,1.32-.31,2.65-.45,4l5-.23q.18-2.16.39-4.32Z"></path><path id="path3672" class="cls-8" d="M483.66,81l5.72,1c1.5,3.17,2.54,6.51,4,9.72,1.21-3.43,2.34-6.9,3.43-10.36l5.73-.09q-3,8.8-6.81,17.41A38.71,38.71,0,0,1,490,97.57,111.93,111.93,0,0,1,483.66,81Z"></path><path id="path3674" class="cls-8" d="M504.35,85.41c.42-1.3.89-2.6,1.41-3.87,4.61-.62,10.85-1.53,14,2.45,1.08,4.7.42,9.64.52,14.45l-6.52-.82c-3.82,1.9-10.37,1.17-10.29-3.84-.75-6,7.38-6.08,11.79-6.88-2.66-3.28-7.26-1.54-10.92-1.49m5.38,5.65c-.16,1.17-.32,2.47-.46,3.71l4.92.11c.15-1.52.29-3,.44-4.55Z"></path><path id="path3676" class="cls-8" d="M544.08,89.9c-.46-7.46,9.82-11.37,16-7.39.16,1.06.44,3.18.56,4.23-2.81-.82-5.71-2.68-8.74-1.42-3.2,2.81-2.54,10,2.9,9.56l6-1.76-1,4.7c-6.42,2.79-16.12-.52-15.62-7.94Z"></path><path id="path3678" class="cls-8" d="M563.07,81c2.23.55,4.51,1.1,6.75,1.69L574.91,81c.07,1.32.25,4,.34,5.27l-6.36.28c-.15,3.94-.19,7.86-.22,11.74h-5.6c-.07-5.78-.09-11.58,0-17.38Z"></path><path id="path3680" class="cls-8" d="M587.22,81.36a31.87,31.87,0,0,0,12.31-.16c6.36,1.17,6.55,9.59,4.12,14-2,3.78-7,3.42-10.79,3.24,0,2,.06,4,.09,6l-5.74-.07v-23m5.79,4c-.06,3.19-.09,6.4-.06,9.59,1.84-.47,4.22-.14,5.61-1.61,1-2.59.23-5.41,0-8.09l-5.58.11Z"></path><g id="g3688"><path id="path3690" class="cls-8" d="M577.49,81.4h5.27q.13,8.47,0,17h-5.28Q577.33,89.89,577.49,81.4Z"></path></g><g id="g3768"><path id="path3770" class="cls-9" d="M467.31,109.36c14.8-.58,29.64.16,44.46-.07,16.35-.47,32.69-.08,49.05,0h38.94c-4.09,41.54-8.2,83.09-12,124.67q-26.09,6.85-52.17,13.6c-2.22.84-4.51.05-6.65-.49q-24.81-6.56-49.63-12.91-6.46-62.35-12-124.79m66.5,10.83c-.61,20.5-.09,41-.27,61.49.17,18.78-.3,37.51.23,56.24,14.62-3.18,29-7,43.45-10.93,3.63-35.58,7.17-71.16,10.18-106.82-17.81-.16-35.74,0-53.6,0m-18.59,80c-8.59-2.18-17.07-4.7-25.77-6.38a80.18,80.18,0,0,0,.43,14.28c12.73,2.86,25.21,6.63,38,9.39.09-27.14,0-54.29,0-81.43-4.15-.1-8.31-.16-12.47-.24-.47,21.42,0,42.88-.22,64.33Z"></path></g><g id="g3796"><path id="path3798" class="cls-10" d="M533.81,120.19c17.81,0,35.74-.14,53.6,0-3,35.62-6.56,71.2-10.18,106.82-14.41,3.85-28.83,7.75-43.45,10.93-.53-18.78-.06-37.49-.23-56.24.18-20.49-.34-41,.27-61.48m5,16q.09,26.46,0,52.95c8.73-1.3,17.43-2.8,26.13-4.26-.12,4.11-.3,8.22-.51,12.33-8.47,2.08-16.93,4.24-25.44,6.16-.14,4.7-.16,9.49-.11,14.24,10.74-2.22,21.32-5,32-7.5,1.35-.58,3.9-.5,3.81-2.43,1.28-12.69,2.1-25.43,3.35-38.15-8.84.68-17.58,2-26.43,2.61-.06-7.21-.09-14.42,0-21.62h27.87c.6-4.81,1.12-9.63,1.51-14.46-14,.06-28.1-.11-42.15.12Z"></path></g><path id="path3806" class="cls-3" d="M515.22,200.24c.19-21.45-.26-42.91.21-64.33,4.17.08,8.33.14,12.47.24-.1,27.13,0,54.29,0,81.43-12.72-2.81-25.23-6.58-38-9.4a80,80,0,0,1-.44-14.27C498.16,195.58,506.63,198.07,515.22,200.24Z"></path></g></g><g class="cls-11"><text class="cls-12" transform="translate(0 21.55) scale(1.08 1)">FRONT END </text><text class="cls-12" transform="translate(83.22 54.47) scale(1.08 1)">WEB DEVELOPER</text></g><g id="layer1-3"><path d="M226.64,281.75c-5.88.24-10.67,4.45-11.21,9.86-.06.61-.11,7.78-.11,18.29v17.31h-2.94a30.61,30.61,0,0,0-7.64.78c-10.86,2.41-19.58,9.88-23,19.7a33.27,33.27,0,0,0-1.27,4.8,41,41,0,0,0,0,8.43,28.71,28.71,0,0,0,3.32,9.5,32.26,32.26,0,0,0,3.29,4.7c.4.46.81.91.89,1s0,.31-1.43,1.68L185,379.3l-.52-.47a4.44,4.44,0,0,0-.77-.58,2.12,2.12,0,0,0-1.27,0c-.32.11-31.92,29.14-32.69,30a1.3,1.3,0,0,0-.44,1,1.82,1.82,0,0,0,.16.76c.21.34,4.83,4.59,5.18,4.76a2.24,2.24,0,0,0,1.53,0c.55-.34,32.6-30,32.76-30.3a1.55,1.55,0,0,0-.56-2,1.41,1.41,0,0,1-.4-.48,16.77,16.77,0,0,1,1.52-1.52c1.44-1.32,1.56-1.4,1.77-1.26l1.12.82a33.31,33.31,0,0,0,20.35,6.33h2.63v2.34c.12,3.53.51,4.88,2.06,7.13a14.17,14.17,0,0,0,3.11,2.92,15.15,15.15,0,0,0,3.81,1.57l1.15.3h91.36c74.61,0,91.53,0,92.13-.13a11.26,11.26,0,0,0,9.56-9.16c0-.4.09-23,.09-50.33,0-38.45,0-49.73-.14-50.23a11.42,11.42,0,0,0-10-8.85c-1-.14-13.53-.14-91.23-.14Zm182.44,6.59a4.64,4.64,0,0,1,2.69,2.93c.14.41.17,7.9.17,49.83,0,47.38,0,49.36-.21,49.91a4.66,4.66,0,0,1-3.44,3.09c-.58.15-8.25.16-91.29.16s-90.72,0-91.29-.16a4.93,4.93,0,0,1-3.07-2.29c-.49-.9-.58-1.68-.56-4.49,0-2,.07-2.35.22-2.46s.82-.31,1.6-.61c15.54-5.59,23.81-21.24,19-36A31,31,0,0,0,223.43,329l-1.27-.44V310.47c0-11.57,0-18.33.09-18.78a4.71,4.71,0,0,1,3.59-3.64c.51-.12,13.42-.14,91.52-.12H408.3ZM214.9,335l.42.07v21.73c0,20.59,0,21.73-.2,21.8-1,.07-2,.09-3,.07a22,22,0,0,1-3.89-.2c-13-2-21.7-13.4-19.49-25.37a21.07,21.07,0,0,1,4.42-9.49,31,31,0,0,1,4.2-4,25.14,25.14,0,0,1,13.16-4.7C212,334.84,213.46,334.87,214.9,335Zm8.3,2.35c.5.23,1.52.8,2.27,1.26a22,22,0,0,1,10.29,15.09,25.22,25.22,0,0,1,0,6.26,22.69,22.69,0,0,1-2.26,6.64,24.06,24.06,0,0,1-7.94,8.34,26.85,26.85,0,0,1-3.41,1.77s-.08-8.95-.08-19.89c0-13.47,0-19.89.12-19.89a7,7,0,0,1,1,.43Z"></path><path d="M243.42,315.3c.73.54.71.53.64.28s-.24-.28-.46-.36C243,315,243,315,243.42,315.3Z"></path><path d="M360.52,316.39a11.22,11.22,0,0,0-1.42.24c-.54.1-1.72.34-2.64.5a21.65,21.65,0,0,0-2.39.52,5,5,0,0,1-.94.26,3.79,3.79,0,0,0-.89.25l-1.4.53a24.91,24.91,0,0,0-11.76,9.39,2.21,2.21,0,0,1-.33.47,29.8,29.8,0,0,0-2.42,5.07,14.4,14.4,0,0,0-.8,2.87,6.67,6.67,0,0,1-.29,1.17,8.26,8.26,0,0,0-.28,1.77c0,.73-.15,1.87-.22,2.54a26.78,26.78,0,0,0,.22,6.75,11.07,11.07,0,0,1,.23,1.53,14.74,14.74,0,0,0,.24,1.5l.33,1.27a11.72,11.72,0,0,0,.87,2.81,3.65,3.65,0,0,1,.28.64,25.42,25.42,0,0,0,2.31,4.49l1,1.31a29.51,29.51,0,0,0,3.29,3.52,28.28,28.28,0,0,0,3,2.17c.69.42,1.4.82,2.13,1.17l1,.48a9.28,9.28,0,0,0,1.49.6l1.14.43a31,31,0,0,0,3.31.88,5.84,5.84,0,0,1,1.09.29,45.78,45.78,0,0,0,7.49.61,39.91,39.91,0,0,0,14-2.09l1.89-.76a5.63,5.63,0,0,0,1-.47,6.77,6.77,0,0,1,.8-.43,8,8,0,0,0,1-.52,31.52,31.52,0,0,0,3.54-2.59,28.35,28.35,0,0,0,3.22-3.36,6.26,6.26,0,0,1,.6-.76,12.8,12.8,0,0,0,1.55-2.58,17.19,17.19,0,0,0,1.44-3.11c.14-.43.33-.95.42-1.17a19,19,0,0,0,.74-3.06,4.08,4.08,0,0,1,.2-.82,14.85,14.85,0,0,0,.36-3.25c.07-1.45.15-2.77.18-2.93a57.52,57.52,0,0,0-.74-7.29,10.32,10.32,0,0,1-.3-1.18,16.88,16.88,0,0,0-.72-2.59,7.15,7.15,0,0,1-.43-1.08,16.24,16.24,0,0,0-1.56-3.19,18.25,18.25,0,0,0-2.25-3.29,33.84,33.84,0,0,0-4.92-4.56,32.3,32.3,0,0,0-3.73-2.08A26.43,26.43,0,0,0,378,318.2a11.5,11.5,0,0,1-1.28-.46,8.17,8.17,0,0,0-1-.27,38.35,38.35,0,0,0-11.05-1.17Zm6.69,9.73a12.4,12.4,0,0,1,5.67,1.95,19.25,19.25,0,0,1,3.05,2.71,16.91,16.91,0,0,1,1.67,2.63c.15.32.39.8.54,1.06a8.81,8.81,0,0,1,.56,1.48l.47,1.56a8.63,8.63,0,0,1,.3,1.58,14.64,14.64,0,0,0,.34,2.22,26.64,26.64,0,0,1,0,6.31c-.09.51-.19,1.32-.23,1.78a20.44,20.44,0,0,1-1.36,5,13.46,13.46,0,0,1-6.16,6.94,16.06,16.06,0,0,1-4.21,1.35,14.84,14.84,0,0,1-6,0,13,13,0,0,1-8.18-4.84,13.2,13.2,0,0,1-1.59-2.61,4.07,4.07,0,0,0-.33-.66,8.92,8.92,0,0,1-.52-1.29c-.17-.53-.41-1.27-.53-1.66a9,9,0,0,1-.34-1.52c-.06-.46-.2-1.18-.3-1.68a38.58,38.58,0,0,1,0-8,5.94,5.94,0,0,0,.2-1.18,14.22,14.22,0,0,1,.7-3.07,14.53,14.53,0,0,1,4.1-6.6,12,12,0,0,1,3.17-2.14,15.5,15.5,0,0,1,3.37-1,8.51,8.51,0,0,0,1.13-.14,18.23,18.23,0,0,1,4.49-.05Z"></path><path d="M265.13,317.6a11.4,11.4,0,0,0-3,.25,9,9,0,0,1-1.27.28,11.41,11.41,0,0,0-1.44.26c-1.46.4-3.27.94-3.49,1.05a6.76,6.76,0,0,1-1,.41,9.41,9.41,0,0,0-1,.47l-1.27.79a14.19,14.19,0,0,0-5.49,6.14c-.14.34-.31.77-.4.95a4.87,4.87,0,0,0-.23.74,7.18,7.18,0,0,1-.3,1.17,23.65,23.65,0,0,0-.33,5.57,15,15,0,0,0,.51,3.1c.09.23.3.82.46,1.32a12.59,12.59,0,0,0,3.09,4.51c.12.11.5.41.86.68a19.62,19.62,0,0,0,4.92,2.71,9,9,0,0,1,1,.38,3.15,3.15,0,0,0,.69.25c.25.05.82.21,1.27.34,1.73.49,6.81,1.58,8.57,1.84a6.58,6.58,0,0,1,1.2.26c.41.1,1.27.29,2,.42a10.16,10.16,0,0,1,1.71.42,5.87,5.87,0,0,0,1,.32,10.55,10.55,0,0,1,3.11,1.41,5.47,5.47,0,0,1,1.59,2.12,6.14,6.14,0,0,1,0,4,7.22,7.22,0,0,1-5.44,3.83l-1.54.29a38.72,38.72,0,0,1-9.62-.24l-1.27-.21c-.26,0-.84-.16-1.28-.27s-1.19-.3-1.76-.42a10.59,10.59,0,0,1-1.57-.49,3.4,3.4,0,0,0-.7-.24,11.7,11.7,0,0,1-2.09-.63,5.89,5.89,0,0,0-.86-.33,24.51,24.51,0,0,1-3.27-1.31,4.78,4.78,0,0,0-1.65-.54c-.18.07-.2.24-.13,2.52,0,1.35.07,3.74.07,5.32,0,3.31,0,3.17,1.15,3.52.34.08.81.23,1,.3s.61.2.87.27.84.2,1.27.33l1.54.37c.38.08,1,.24,1.44.36a12.88,12.88,0,0,0,1.47.32c.41.06,1,.15,1.21.21a6.15,6.15,0,0,0,.85.1,6,6,0,0,1,1.27.26,5,5,0,0,0,1.68.26,21.85,21.85,0,0,1,2.29.18,50.22,50.22,0,0,0,6.49.11c4.55-.06,5.2-.08,6-.27a14.44,14.44,0,0,1,1.6-.27,11.1,11.1,0,0,0,1.28-.24c.34-.1.91-.24,1.27-.31a22.51,22.51,0,0,0,6.12-2.52,16.53,16.53,0,0,0,3.7-3.42,13.22,13.22,0,0,0,2.19-4.55,2,2,0,0,1,.27-.73,6.13,6.13,0,0,0,.42-1c.17-.59.3-.7.44-.35.06.14.15,2.92.19,6.19.08,4.75.12,5.95.24,6.07s.84.14,3.73.09l11.81-.14,11.45-.16,8.7-.12c3,0,5.51-.11,5.59-.14s.11-1.09,0-4.9c-.06-2.65-.16-4.87-.2-4.93s-2.84-.09-11.66.06c-1.56,0-5.48.08-8.69.12-5.83.06-5.84.06-6.14-.15a1,1,0,0,1-.37-.64c0-.21-.07-3-.09-6.16v-5.76l.26-.25.27-.25,8.2-.08c4.5,0,9.87-.12,11.92-.15l3.71-.08v-4.84a29.72,29.72,0,0,0-.11-5c-.12-.14-.45-.15-2-.09-1,0-4.92.08-8.64.1l-9.83.12c-3.21.07-3.59,0-3.82-.35s-.23-2-.25-6.35V328.6l.3-.25c.29-.22.42-.24,1.71-.24h3.74c1.27,0,6.36-.11,11.16-.17,7.11-.08,8.83-.14,8.9-.26s.13-1,.07-4.95c-.07-4.27-.1-4.84-.27-4.9s-1.81-.05-3.82,0-8.42.13-14.3.19c-21.48.25-22.05.27-22.23.44s-.15,1-.07,6c.1,6.27.37,24.12.38,26s-.22,2.42-.51,1.45a1.71,1.71,0,0,0-.33-.66,4.49,4.49,0,0,1-.56-1.17,12.23,12.23,0,0,0-6.94-6.84c-.68-.33-1.6-.71-2-.88a5,5,0,0,1-1-.37,3,3,0,0,0-.76-.27l-1.27-.28a5.24,5.24,0,0,1-.95-.3,4.48,4.48,0,0,0-1.09-.28c-1.53-.23-2.66-.43-3.23-.59a11,11,0,0,0-1.28-.22c-.42,0-.85-.12-1.27-.21s-.85-.16-1.14-.2c-.92-.12-4.35-.8-5.66-1.17a18.35,18.35,0,0,1-2.75-1,5.67,5.67,0,0,1-2.17-1.85,6.24,6.24,0,0,1-.44-1.39,4.7,4.7,0,0,1,0-1.83,3.94,3.94,0,0,1,1-2.35A9.07,9.07,0,0,1,266,327.5c3.68-.42,4.71-.45,6.36-.19q.92.12,1.83.15a12.3,12.3,0,0,1,1.49.12,12.52,12.52,0,0,1,1.67.26,6.78,6.78,0,0,1,1.27.24,5.09,5.09,0,0,0,1.07.27,42,42,0,0,1,4.84,1.28l1.37.47,1.27.45c.64.26.68.27.78.09a40.77,40.77,0,0,0,0-5.33c0-4.48-.09-5.17-.26-5.35s-.42-.24-1-.29a4.88,4.88,0,0,1-.94-.18,5,5,0,0,0-.93-.16,4.62,4.62,0,0,1-1.1-.25,4.32,4.32,0,0,0-1-.21,12.3,12.3,0,0,1-1.66-.23A78,78,0,0,0,265.13,317.6Z"></path><path d="M204.78,402.33c-.1,0-.11.35-.06,1a11.55,11.55,0,0,0,8.39,10.39l.89.25H420.13l1-.31a11,11,0,0,0,4.36-2.41A12,12,0,0,0,429,405.4a8.65,8.65,0,0,0,.32-3.12C428.86,402.25,204.86,402.27,204.78,402.33Zm129.59,2.59a.71.71,0,0,1,.36.73c0,.39,0,.49-.33.67l-.33.22H299.88l-.31-.27a.8.8,0,0,1-.1-1.2.94.94,0,0,1,.1-.1l.33-.33H334Z"></path></g><g class="cls-11"><text class="cls-13" transform="translate(428.63 326.25) scale(1.08 1)">SEARCH</text><text class="cls-13" transform="translate(428.63 347.99) scale(1.08 1)">ENGINE </text><text class="cls-13" transform="translate(428.63 369.74) scale(1.08 1)">OPTIMISATION</text></g></g></g></svg>