<svg id="Layer_1" data-name="Layer 1" xmlns="http://www.w3.org/2000/svg" xmlns:xlink="http://www.w3.org/1999/xlink" viewBox="0 0 546.73 304.33"><defs><style>.cls-1{fill:url(#radial-gradient);}.cls-2{fill:#d0d2d3;}.cls-3{fill:#bbbdbf;}.cls-4{fill:#e6e6e7;}.cls-5{fill:#221f1f;}.cls-6{fill:#f0f1f1;}.cls-7{fill:#929597;}.cls-8{fill:#914e93;}.cls-9{fill:#29a9e0;}.cls-10{fill:#f69322;}.cls-11{fill:#d34040;}.cls-12{fill:#8bc543;}.cls-13,.cls-16{opacity:0.3;}.cls-14,.cls-16{fill:#fff;}.cls-15{fill:url(#radial-gradient-2);}.cls-16,.cls-20,.cls-21,.cls-22,.cls-23,.cls-24,.cls-25,.cls-26,.cls-27{isolation:isolate;}.cls-17{fill:url(#radial-gradient-3);}.cls-18{fill:#403f41;}.cls-19{fill:url(#radial-gradient-4);}.cls-20{opacity:0.25;}.cls-21,.cls-22,.cls-23,.cls-24,.cls-25,.cls-26,.cls-27{font-size:12px;font-family:MyriadPro-Regular, Myriad Pro;}.cls-21{letter-spacing:-0.03em;}.cls-23{letter-spacing:0.01em;}.cls-24{letter-spacing:-0.01em;}.cls-25{letter-spacing:0.02em;}.cls-26{letter-spacing:-0.04em;}.cls-27{letter-spacing:-0.01em;}.cls-28{font-size:18px;font-family:LucidaHandwriting-Italic, Lucida Handwriting;font-style:italic;}</style><radialGradient id="radial-gradient" cx="328.25" cy="-225237.21" r="143.95" gradientTransform="matrix(0.57, 0, 0, -0.03, 22.63, -6994.79)" gradientUnits="userSpaceOnUse"><stop offset="0.27"/><stop offset="1"/></radialGradient><radialGradient id="radial-gradient-2" cx="369.29" cy="-157700.42" r="143.9" gradientTransform="matrix(1.05, 0, 0, -0.05, -3.15, -6906.62)" gradientUnits="userSpaceOnUse"><stop offset="0.43"/><stop offset="1"/></radialGradient><radialGradient id="radial-gradient-3" cx="68.25" cy="-102438.35" r="108.62" gradientTransform="matrix(0.59, 0, 0, -0.07, 28.34, -6772.74)" gradientUnits="userSpaceOnUse"><stop offset="0.34"/><stop offset="1"/></radialGradient><radialGradient id="radial-gradient-4" cx="165.54" cy="-88910.08" r="64.38" gradientTransform="matrix(0.59, 0, 0, -0.08, 28.34, -6715.84)" xlink:href="#radial-gradient-3"/></defs><title>responsive</title><g id="Capa_1" data-name="Capa 1"><path class="cls-1" d="M297.73,240.09c0,2.75-39.4,3.56-88,3.56s-88-.81-88-3.56,39.4-5,88-5S297.73,237.34,297.73,240.09Z" transform="translate(0 0)"/><polygon class="cls-2" points="250.65 233.22 171.96 233.22 183.34 180.13 239.28 180.13 250.65 233.22"/><polygon class="cls-3" points="245.71 210.15 239.28 180.13 183.34 180.13 176.91 210.15 245.71 210.15"/><path class="cls-4" d="M267.14,239.34H155.47c-5.92,0-6.83-7.84-6.83-7.84H274S273.07,239.34,267.14,239.34Z" transform="translate(0 0)"/><rect class="cls-5" x="63.62" width="295.37" height="182.55" rx="13.04"/><path class="cls-4" d="M63.62,166v25.66a13,13,0,0,0,13,13H346a13,13,0,0,0,13-13h0V166Z" transform="translate(0 0)"/><rect class="cls-6" x="73.15" y="12.32" width="276.31" height="141.97"/><circle class="cls-7" cx="211.31" cy="184.65" r="9.44"/><rect class="cls-8" x="109.91" y="19.06" width="60.18" height="13.23"/><rect class="cls-3" x="181.22" y="19.06" width="131.49" height="13.23"/><rect class="cls-9" x="109.91" y="38.32" width="202.8" height="36.45"/><rect class="cls-10" x="109.91" y="82.11" width="60.18" height="36.88"/><rect class="cls-11" x="181.22" y="82.11" width="60.18" height="36.88"/><rect class="cls-12" x="252.53" y="82.11" width="60.18" height="36.88"/><rect class="cls-7" x="109.91" y="124.61" width="60.18" height="5.24"/><rect class="cls-3" x="109.91" y="133.87" width="60.18" height="5.24"/><rect class="cls-3" x="109.91" y="143.14" width="60.18" height="5.24"/><rect class="cls-7" x="181.22" y="124.61" width="60.18" height="5.24"/><rect class="cls-3" x="181.22" y="133.87" width="60.18" height="5.24"/><rect class="cls-3" x="181.22" y="143.14" width="60.18" height="5.24"/><rect class="cls-7" x="252.53" y="124.61" width="60.18" height="5.24"/><rect class="cls-3" x="252.53" y="133.87" width="60.18" height="5.24"/><rect class="cls-3" x="252.53" y="143.14" width="60.18" height="5.24"/><g class="cls-13"><path class="cls-14" d="M346,.2H159L282.59,204.88H346a13,13,0,0,0,13-13h0V13.24a13,13,0,0,0-13-13Z" transform="translate(0 0)"/></g><path class="cls-15" d="M546.73,276.1c0,3.87-72.59,5-162.13,5s-162.13-1.14-162.13-5,72.59-7,162.13-7S546.73,272.22,546.73,276.1Z" transform="translate(0 0)"/><path class="cls-5" d="M492.48,267.82V133.24a11.61,11.61,0,0,0-11.61-11.61H287.07a11.61,11.61,0,0,0-11.61,11.61V267.82Z" transform="translate(0 0)"/><path class="cls-3" d="M509.79,275.74H258.15c-5.22,0-6-6.91-6-6.91H515.81S515,275.74,509.79,275.74Z" transform="translate(0 0)"/><rect class="cls-4" x="252.13" y="266.14" width="263.68" height="3.88"/><rect class="cls-3" x="358.53" y="266.14" width="50.89" height="2.2"/><rect class="cls-6" x="283.95" y="132.6" width="200.05" height="126.42"/><rect class="cls-8" x="293.02" y="138.58" width="53.59" height="11.78"/><rect class="cls-3" x="356.52" y="138.58" width="117.09" height="11.78"/><rect class="cls-9" x="293.02" y="155.73" width="180.59" height="32.46"/><rect class="cls-10" x="293.02" y="194.73" width="53.59" height="32.84"/><rect class="cls-11" x="356.52" y="194.73" width="53.59" height="32.84"/><rect class="cls-12" x="420.02" y="194.73" width="53.59" height="32.84"/><rect class="cls-7" x="293.02" y="232.57" width="53.59" height="4.67"/><rect class="cls-3" x="293.02" y="240.82" width="53.59" height="4.66"/><rect class="cls-3" x="293.02" y="249.07" width="53.59" height="4.67"/><rect class="cls-7" x="356.52" y="232.57" width="53.59" height="4.67"/><rect class="cls-3" x="356.52" y="240.82" width="53.59" height="4.66"/><rect class="cls-3" x="356.52" y="249.07" width="53.59" height="4.67"/><rect class="cls-7" x="420.02" y="232.57" width="53.59" height="4.67"/><rect class="cls-3" x="420.02" y="240.82" width="53.59" height="4.66"/><rect class="cls-3" x="420.02" y="249.07" width="53.59" height="4.67"/><path class="cls-16" d="M492.55,265.67V133.24A11.6,11.6,0,0,0,481,121.63H347.49l87,144Z" transform="translate(0 0)"/><path class="cls-17" d="M136.88,250.33c0,4.41-30.64,5.71-68.44,5.71S0,254.74,0,250.33s30.64-8,68.44-8S136.88,245.92,136.88,250.33Z" transform="translate(0 0)"/><rect class="cls-5" x="18.91" y="106.94" width="100.48" height="143.81" rx="6.5"/><rect class="cls-6" x="25.76" y="120.93" width="86.79" height="115.82"/><path class="cls-18" d="M75.92,244.12a2.39,2.39,0,0,1-2.38,2.38H66.06a2.4,2.4,0,0,1-2.38-2.38h0a2.39,2.39,0,0,1,2.38-2.38h7.48a2.37,2.37,0,0,1,2.38,2.36Z" transform="translate(0 0)"/><rect class="cls-8" x="30.34" y="127.32" width="26.86" height="11.43"/><rect class="cls-3" x="61.96" y="127.32" width="45.97" height="11.43"/><rect class="cls-9" x="30.34" y="144.89" width="77.58" height="32.11"/><rect class="cls-10" x="30.34" y="183.14" width="35.29" height="21.63"/><rect class="cls-11" x="72.16" y="183.14" width="35.29" height="21.63"/><rect class="cls-7" x="30.34" y="210.06" width="35.29" height="3.07"/><rect class="cls-3" x="30.34" y="216.32" width="35.29" height="3.07"/><rect class="cls-3" x="30.34" y="222.59" width="35.29" height="3.07"/><rect class="cls-3" x="30.34" y="228.86" width="35.29" height="3.07"/><rect class="cls-7" x="72.16" y="210.06" width="35.29" height="3.07"/><rect class="cls-3" x="72.16" y="216.32" width="35.29" height="3.07"/><rect class="cls-3" x="72.16" y="222.59" width="35.29" height="3.07"/><rect class="cls-3" x="72.16" y="228.86" width="35.29" height="3.07"/><path class="cls-16" d="M109.7,250.74h3.19a6.5,6.5,0,0,0,6.5-6.5h0V113.43a6.5,6.5,0,0,0-6.49-6.49H25.41a6.55,6.55,0,0,0-2.27.41Z" transform="translate(0 0)"/><path class="cls-19" d="M166.09,277.18c0,3-18.16,3.88-40.56,3.88S85,280.18,85,277.18s18.16-5.44,40.56-5.44S166.09,274.17,166.09,277.18Z" transform="translate(0 0)"/><rect class="cls-5" x="96.71" y="176.17" width="58.32" height="101.04" rx="5.75"/><rect class="cls-6" x="100.3" y="188.87" width="51.14" height="74.17"/><path class="cls-18" d="M128,183.2a2.15,2.15,0,1,1-2.15-2.15h0A2.15,2.15,0,0,1,128,183.2Z" transform="translate(0 0)"/><path class="cls-18" d="M132,270.2a2.37,2.37,0,0,1-2.36,2.37H122.2a2.37,2.37,0,0,1-2.36-2.37h0a2.36,2.36,0,0,1,2.36-2.36h7.44A2.36,2.36,0,0,1,132,270.2Z" transform="translate(0 0)"/><rect class="cls-8" x="102.87" y="191.23" width="46.15" height="7.45"/><rect class="cls-3" x="102.87" y="201.19" width="46.14" height="8.25"/><rect class="cls-9" x="102.87" y="212.48" width="46.14" height="18.62"/><rect class="cls-10" x="102.87" y="234.06" width="46.14" height="25.72"/><path class="cls-16" d="M154.19,274.1a5.74,5.74,0,0,0,.64-2.63V181.92a5.77,5.77,0,0,0-5.75-5.75H102.25a5.74,5.74,0,0,0-5.19,3.3Z" transform="translate(0 0)"/><g class="cls-20"><text class="cls-21" transform="translate(0.43 301.33)">V</text><text class="cls-22" transform="translate(6.73 301.33)">e</text><text class="cls-23" transform="translate(12.74 301.33)">c</text><text class="cls-24" transform="translate(18.27 301.33)">t</text><text class="cls-22" transform="translate(22.17 301.33)">ee</text><text class="cls-25" transform="translate(34.2 301.33)">z</text><text class="cls-26" transform="translate(39.62 301.33)">y</text><text class="cls-22" transform="translate(44.81 301.33)">.</text><text class="cls-27" transform="translate(47.29 301.33)">c</text><text class="cls-22" transform="translate(52.59 301.33)">om</text></g></g><text class="cls-28" transform="translate(366 65.89)">RESPONSIVE<tspan x="0" y="21.6">WEB LAYOUT</tspan></text></svg>