<svg xmlns="http://www.w3.org/2000/svg" viewBox="0 0 19 19"><defs><style>.cls-1{fill:#010201;}.cls-2{fill:#fff;}</style></defs><title>youtube</title><g id="Layer_2" data-name="Layer 2"><g id="Graphic_Elements" data-name="Graphic Elements"><circle class="cls-1" cx="9.5" cy="9.5" r="9.5"/><path class="cls-2" d="M15.57,6.45a1.62,1.62,0,0,0-1.12-1.12A38.56,38.56,0,0,0,9.5,5.07a38.56,38.56,0,0,0-4.95.26A1.62,1.62,0,0,0,3.43,6.45,16.8,16.8,0,0,0,3.17,9.5a16.8,16.8,0,0,0,.26,3.05,1.62,1.62,0,0,0,1.12,1.12,38.56,38.56,0,0,0,5,.26,38.56,38.56,0,0,0,4.95-.26,1.62,1.62,0,0,0,1.12-1.12,16.8,16.8,0,0,0,.26-3.05A16.8,16.8,0,0,0,15.57,6.45Zm-7.34,5V7.6l3.29,1.9Z"/></g></g></svg>